<?xml version="1.0" encoding="UTF-8"?>
<svg version="1.1" xmlns="http://www.w3.org/2000/svg" width="498" height="498">
<path d="M0 0 C1.45058807 0.00273422 1.45058807 0.00273422 2.93048096 0.00552368 C17.25083496 0.05093019 31.22948336 0.50087789 45.3125 3.3125 C46.19309082 3.47878906 47.07368164 3.64507812 47.98095703 3.81640625 C68.43192468 7.74998507 88.57775348 14.181666 107.3125 23.3125 C108.16634277 23.7245166 109.02018555 24.1365332 109.89990234 24.56103516 C124.31754322 31.59004375 137.48890058 39.68624722 150.3125 49.3125 C151.31667969 50.06402344 152.32085937 50.81554688 153.35546875 51.58984375 C170.7962813 65.14875844 187.40522418 81.36907735 200.3125 99.3125 C200.98804932 100.24545898 200.98804932 100.24545898 201.67724609 101.19726562 C226.75793329 136.08756099 243.0299583 175.5388781 248.3125 218.3125 C248.39869598 218.98138245 248.48489197 219.65026489 248.57369995 220.3394165 C249.25036708 225.90956668 249.48634748 231.39962695 249.515625 237.0078125 C249.52268463 237.90967789 249.52974426 238.81154327 249.53701782 239.74073792 C249.76646145 277.66760732 249.76646145 277.66760732 246.3125 294.3125 C246.00650879 295.80305908 246.00650879 295.80305908 245.69433594 297.32373047 C237.37873642 336.64429094 221.28358317 372.7533576 196.3125 404.3125 C195.37821167 405.50166016 195.37821167 405.50166016 194.42504883 406.71484375 C188.73059325 413.83275456 182.58725405 420.39770861 176.125 426.8125 C175.36873825 427.56652603 175.36873825 427.56652603 174.59719849 428.33578491 C166.93180459 435.96058029 159.11814708 443.02275208 150.3125 449.3125 C149.19128103 450.14913225 148.07151931 450.98772053 146.953125 451.828125 C113.15376073 476.954082 72.90237593 491.87680662 31.3125 497.3125 C30.32783249 497.44132568 30.32783249 497.44132568 29.32327271 497.57275391 C23.74157532 498.25382641 18.23732612 498.48628508 12.6171875 498.515625 C11.71532211 498.52268463 10.81345673 498.52974426 9.88426208 498.53701782 C-27.99324481 498.76616283 -27.99324481 498.76616283 -44.6875 495.3125 C-46.15413086 495.01448486 -46.15413086 495.01448486 -47.65039062 494.71044922 C-79.868067 487.96897618 -111.57649464 476.31138957 -138.6875 457.3125 C-139.43112793 456.79751953 -140.17475586 456.28253906 -140.94091797 455.75195312 C-151.62186161 448.29942416 -161.49602579 440.33064375 -170.7734375 431.19140625 C-172.81038833 429.19186881 -174.87313955 427.22120339 -176.9375 425.25 C-186.56163873 415.96139946 -194.97026116 406.23297201 -202.6875 395.3125 C-203.36135742 394.36576416 -203.36135742 394.36576416 -204.04882812 393.39990234 C-227.77455268 359.7825661 -242.45972884 321.07601483 -247.6875 280.3125 C-247.77482895 279.64021866 -247.8621579 278.96793732 -247.95213318 278.27528381 C-248.62629531 272.70876596 -248.86136768 267.22150467 -248.890625 261.6171875 C-248.89768463 260.71532211 -248.90474426 259.81345673 -248.91201782 258.88426208 C-249.14146145 220.95739268 -249.14146145 220.95739268 -245.6875 204.3125 C-245.38150879 202.82194092 -245.38150879 202.82194092 -245.06933594 201.30126953 C-240.41767466 179.30575038 -233.52473623 158.5243887 -223.6875 138.3125 C-223.32930176 137.57547852 -222.97110352 136.83845703 -222.60205078 136.07910156 C-212.36615075 115.30748567 -198.73281744 96.01221072 -182.6875 79.3125 C-182.02186035 78.61962891 -181.3562207 77.92675781 -180.67041016 77.21289062 C-170.89370277 67.10267188 -161.07148573 57.58199907 -149.6875 49.3125 C-148.56187205 48.46958791 -147.43687792 47.62582881 -146.3125 46.78125 C-103.82431528 15.23680772 -52.59268515 -0.20637221 0 0 Z " fill="#FEFEFE" transform="translate(248.6875,-0.3125)"/>
<path d="M0 0 C0.74733398 0.31308105 1.49466797 0.62616211 2.26464844 0.94873047 C23.61709512 10.04543137 42.74307048 23.53997816 59.47314453 39.54052734 C60.50315775 40.52508427 61.53812459 41.5044814 62.57763672 42.47900391 C91.53666831 69.69468242 110.25317571 106.50033286 119 145 C119.17821289 145.72767578 119.35642578 146.45535156 119.54003906 147.20507812 C121.48556276 155.7825804 121.67888808 164.52119841 122.10449219 173.27392578 C122.63954681 189.23803986 122.63954681 189.23803986 130 203 C135.75566449 207.96260843 141.54494855 208.67594627 148.9765625 208.35546875 C155.55586001 207.58193377 159.68173336 205.13523601 164 200 C165.45610992 197.71114748 166.72859434 195.40154403 168 193 C168.33 193 168.66 193 169 193 C171.08965692 246.32494871 148.70685946 300.66417054 116 342 C115.06571167 343.18916016 115.06571167 343.18916016 114.11254883 344.40234375 C108.41809325 351.52025456 102.27475405 358.08520861 95.8125 364.5 C95.05623825 365.25402603 95.05623825 365.25402603 94.28469849 366.02328491 C86.61930459 373.64808029 78.80564708 380.71025208 70 387 C68.87878103 387.83663225 67.75901931 388.67522053 66.640625 389.515625 C28.3235266 418 28.3235266 418 14 418 C14.05220703 416.515 14.05220703 416.515 14.10546875 415 C14.39800804 403.45347421 13.30403131 396.59140175 5.171875 387.984375 C-0.78361174 382.543031 -5.75000319 381.91666631 -14 381 C-14 363.51 -14 346.02 -14 328 C-7.73 326.68 -1.46 325.36 5 324 C8.60654201 322.8384885 11.92678543 321.72065548 15.375 320.25 C16.20314209 319.90638428 17.03128418 319.56276855 17.88452148 319.20874023 C44.2396476 307.95250458 64.00454325 287.27654429 75 261 C76.97948948 255.76537695 78.64469652 250.43019703 80 245 C80.1731542 244.30786722 80.3463084 243.61573444 80.5247097 242.90262794 C82.12778465 235.76633275 82.30590148 228.85782513 82.31884766 221.56396484 C82.32889328 220.25552612 82.3389389 218.9470874 82.34928894 217.59899902 C82.37638294 214.04186556 82.39167652 210.48477124 82.40471697 206.92756224 C82.42043859 203.19862138 82.44719958 199.46975939 82.4727478 195.74087524 C82.51937676 188.69346067 82.55619728 181.64603099 82.58942068 174.59854186 C82.6277549 166.56939319 82.67713513 158.54032405 82.72740483 150.51124263 C82.83048819 134.00755236 82.91982466 117.5038178 83 101 C75.57881505 103.50457861 68.1591379 106.01358531 60.74047852 108.52563477 C58.21813725 109.37950599 55.69525825 110.23173545 53.17211914 111.08325195 C49.53962215 112.30935389 45.90837403 113.53909354 42.27734375 114.76953125 C41.15416245 115.14777542 40.03098114 115.52601959 38.87376404 115.91572571 C32.30315652 118.14640557 32.30315652 118.14640557 25.88476562 120.77246094 C19.94558124 123.29973066 13.57223229 119.46257027 7.85351562 117.25976562 C-12.76541096 109.67124744 -41.15436396 109.87155713 -61.5078125 118.484375 C-64.49737254 119.85826835 -64.49737254 119.85826835 -67.00390625 121.33984375 C-75.16300991 123.13761235 -85.76855185 117.45798225 -93.44921875 114.76953125 C-94.46036743 114.41870483 -95.47151611 114.06787842 -96.51330566 113.7064209 C-100.23942265 112.41243013 -103.96333802 111.11210664 -107.6875 109.8125 C-116.040625 106.904375 -124.39375 103.99625 -133 101 C-133 134.66 -133 168.32 -133 203 C-138.61 204.32 -144.22 205.64 -150 207 C-166.97375427 212.65791809 -181.17525533 220.6852799 -195 232 C-195.65097656 232.48597656 -196.30195313 232.97195313 -196.97265625 233.47265625 C-210.54839276 243.96737455 -220.44513582 262.10912067 -226 278 C-226.57234375 279.62615234 -226.57234375 279.62615234 -227.15625 281.28515625 C-231.20553504 294.80687594 -230.83531564 308.99615057 -231 323 C-235.46575656 319.55720505 -238.67524362 315.96224161 -242.0625 311.5 C-242.62541748 310.75878906 -243.18833496 310.01757812 -243.76831055 309.25390625 C-262.71767457 283.79392519 -274.67448719 255.02513427 -281 224 C-281.21269531 223.00097656 -281.42539062 222.00195312 -281.64453125 220.97265625 C-286.21127816 198.0732131 -285.57050331 172.83468043 -281 150 C-280.82839355 149.14003418 -280.65678711 148.28006836 -280.47998047 147.39404297 C-271.55783337 104.15471885 -248.79672839 61.07736015 -214 33 C-212.98421875 32.16984375 -211.9684375 31.3396875 -210.921875 30.484375 C-183.65525463 8.45382103 -153.32675721 -5.85770232 -119 -13 C-118.13930908 -13.18256348 -117.27861816 -13.36512695 -116.3918457 -13.55322266 C-77.83947385 -21.54750488 -35.92672726 -15.15008415 0 0 Z " fill="#000000" transform="translate(329,62)"/>
<path d="M0 0 C2.81211657 1.48448385 5.39036137 3.16564634 7.9609375 5.03515625 C8.8271875 5.63328125 9.6934375 6.23140625 10.5859375 6.84765625 C13.55731581 9.58445206 15.59342474 12.21251823 16.9609375 16.03515625 C17.0234375 19.72265625 17.0234375 19.72265625 15.9609375 23.03515625 C11.83931834 27.27126483 7.62195652 29.12069877 1.7734375 29.28515625 C-3.32480316 29.15054924 -8.10505549 28.29397915 -13.0390625 27.03515625 C-14.00070312 26.79023438 -14.96234375 26.5453125 -15.953125 26.29296875 C-25.19329356 23.59493504 -33.63587492 18.9930188 -39.2890625 10.97265625 C-40.86547897 8.04420376 -41.04802619 6.76624547 -41.1640625 3.28515625 C-39.80907852 -0.62924192 -38.53981683 -1.81665359 -35.0390625 -3.96484375 C-23.88362176 -9.10781643 -10.56121743 -5.01371874 0 0 Z " fill="#040404" transform="translate(278.0390625,266.96484375)"/>
<path d="M0 0 C2.89984423 2.44674357 2.9927 3.95619997 3.625 7.75 C3.38980229 12.27755587 1.55385441 14.85023676 -1.5546875 18.046875 C-13.5804686 27.65213147 -28.83265657 31.51844046 -44 30 C-48.7697638 28.74554503 -51.22880666 27.09836627 -54.0625 23.0625 C-55.09826443 19.67900287 -54.97100215 18.3422916 -54 15 C-47.81382731 5.18157912 -37.59290251 0.52250949 -26.73046875 -2.30859375 C-17.69000258 -3.98415659 -8.25931306 -4.44732242 0 0 Z " fill="#020202" transform="translate(377,265)"/>
</svg>
